<?xml version="1.0" encoding="utf-8"?>
<!-- Generator: Adobe Illustrator 25.4.0, SVG Export Plug-In . SVG Version: 6.00 Build 0)  -->
<svg version="1.1" id="Layer_1" xmlns="http://www.w3.org/2000/svg" xmlns:xlink="http://www.w3.org/1999/xlink" x="0px" y="0px"
	 viewBox="0 0 50 50" style="enable-background:new 0 0 50 50;" xml:space="preserve">
<style type="text/css">
	.st0{fill:#777777;}
	.st1{fill:#E8540A;}
	.st2{fill:#6D6D6D;}
	.st3{fill:#B5C5EA;}
	.st4{fill:#4979EF;}
	.st5{fill:#60605F;}
	.st6{fill:#D6D5D4;}
	.st7{fill:#BABABA;}
	.st8{fill:#828282;}
	.st9{fill:#8C8C8C;}
	.st10{fill:#45CC92;}
	.st11{fill:#595959;}
	.st12{fill:#757575;}
	.st13{fill:#A5A5A5;}
	.st14{fill:#474747;}
	.st15{fill:#FE9711;}
</style>
<g>
	<path class="st0" d="M16.2,25.8c0,0.3-0.1,0.5-0.4,0.7c-0.3,0.2-0.7,0.1-0.9-0.1c-0.4-0.4-0.7-0.7-1.1-1.1
		c-0.8-0.8-1.6-1.6-2.4-2.4c-0.2-0.2-0.4-0.3-0.7-0.3c-2.3,0-4.6,0-6.9,0c-0.1,0-0.3,0-0.4,0c-0.5,0-0.8-0.4-0.8-0.8S2.9,21,3.4,21
		c0.7,0,1.3,0,2,0c1.9,0,3.9,0,5.8,0c0.4,0,0.7,0.1,1,0.4c1.2,1.3,2.5,2.5,3.7,3.7C16,25.3,16.1,25.5,16.2,25.8z"/>
	<path class="st1" d="M10.9,1.7c-1.2,0-2.3,0-3.5,0c-0.6,0-1-0.3-1-0.8s0.4-0.8,1-0.8c2.3,0,4.6,0,6.9,0c0.6,0,1,0.3,1,0.8
		s-0.4,0.8-1,0.8C13.2,1.7,12.1,1.7,10.9,1.7z"/>
	<path class="st2" d="M39.1,50c-1.2,0-2.3,0-3.5,0c-0.6,0-1-0.3-1-0.8s0.4-0.8,1-0.8c2.3,0,4.6,0,6.9,0c0.6,0,1,0.3,1,0.8
		s-0.4,0.8-1,0.8C41.4,50,40.3,50,39.1,50z"/>
	<path class="st3" d="M8.5,4.1c-0.4,0-0.8,0-1.2,0C6.8,4,6.5,3.7,6.5,3.3c0-0.5,0.3-0.8,0.8-0.8c0.8,0,1.6,0,2.4,0
		c0.5,0,0.8,0.4,0.8,0.8s-0.3,0.8-0.8,0.8C9.3,4.1,8.9,4.1,8.5,4.1z"/>
	<path class="st2" d="M41.6,46c0.4,0,0.8,0,1.2,0c0.5,0,0.8,0.4,0.8,0.8c0,0.4-0.3,0.8-0.8,0.8c-0.8,0-1.6,0-2.4,0
		c-0.5,0-0.8-0.4-0.8-0.8c0-0.4,0.3-0.8,0.8-0.8C40.7,46,41.1,46,41.6,46z"/>
	<g>
		<path class="st2" d="M48.9,20.2c-0.1,0-0.2,0-0.3,0c-9.8,0-19.6,0-29.4,0c-0.5,0-0.6-0.1-0.6-0.6c0-6.1,0-12.3,0-18.4
			c0-0.2,0-0.3,0-0.5C18.5,0.2,18.2,0,17.8,0c-0.5,0-0.7,0.3-0.8,0.7c0,0.2,0,0.3,0,0.5c0,6.5,0,13,0,19.5c0,0.9,0.2,1.1,1.1,1.1
			c5.1,0,10.3,0,15.4,0s10.2,0,15.5,0c0.7,0,1.1-0.3,1.1-0.8S49.7,20.2,48.9,20.2z"/>
		<path class="st2" d="M37.5,22.6c-0.8,0-1.2,0.2-1.2,0.8c0,0.5,0.4,0.8,1.2,0.8s1.2-0.2,1.2-0.8C38.7,22.9,38.3,22.6,37.5,22.6z"/>
	</g>
	<path class="st4" d="M35.9,26c-4.8,0.6-8.5,4.7-8.5,9.6c0,1.8,0.5,3.5,1.4,5c0.1,0.2,0.2,0.3,0,0.5c-1,0.9-1.9,1.9-3,3
		c0-0.3,0-0.4,0.2-0.5c0-4.8,0-9.5,0-14.3c0-0.8-0.3-1.1-1.1-1.1c-0.5,0-1.1,0-1.8,0c0.9-0.9,1.7-1.7,2.5-2.5
		c0.5-0.5,0.9-1.2,1.5-1.4c0.6-0.3,1.4-0.1,2.1-0.1c1.8,0,3.6,0,5.4,0c0.7,0,1.1-0.6,0.8-1.2c-0.2-0.4-0.5-0.5-0.9-0.5
		c-2.6,0-5.1,0-7.6,0c-0.5,0-0.8,0.1-1.1,0.4c-1.6,1.7-3.2,3.3-4.8,4.9c-0.3,0.3-0.5,0.4-0.9,0.4c-6.3,0-12.7,0-19,0
		c-0.8,0-1.1,0.3-1.1,1C0,35.8,0,42.4,0,49c0,0.7,0.3,1,1,1c8,0,15.9,0,23.6,0.2c0.7,0,1-0.3,1-1c0-0.8,0-1.6,0-2.4
		c0-0.2,0.1-0.4,0.3-0.6c1.2-1.2,2.4-2.4,3.6-3.6c0.3-0.3,0.4-0.3,0.8,0c3,2.7,6.5,3.5,10.2,2c3.9-1.5,5.9-4.4,6.2-8.5
		C47.1,30.1,41.9,25.3,35.9,26z M24.2,48c0,0.4-0.1,0.5-0.5,0.5c-7.2,0-14.4,0-21.6,0c-0.4,0-0.5-0.1-0.5-0.5c0-5.9,0-11.7,0-17.6
		c0-0.4,0.1-0.5,0.5-0.5c3.6,0,7.2,0,10.8,0c3.6,0,7.2,0,10.8,0c0.4,0,0.5,0.1,0.5,0.5C24.2,36.3,24.2,42.1,24.2,48z M37.2,29.8
		c3.1,0,5.6,2.5,5.6,5.6c0,3.2-2.5,5.7-5.7,5.7c-3.1,0-5.6-2.5-5.6-5.6C31.6,32.3,34.1,29.8,37.2,29.8z"/>
	<path class="st1" d="M8.1,5.7c-4,0-7.3,3.2-7.3,7.2s3.3,7.3,7.2,7.3c4.1,0,7.3-3.3,7.3-7.3C15.3,9,12.1,5.7,8.1,5.7z M8.8,7.6
		c0-0.3,0.1-0.3,0.4-0.3c2,0.3,4,2.3,4.4,4.3c0,0.3,0,0.4-0.3,0.4c-0.7,0.1-1.4,0.1-2.1,0.1s-1.3,0-2,0c-0.3,0-0.4-0.1-0.4-0.4
		C8.8,10.3,8.8,9,8.8,7.6z M3.5,16C1.2,12.7,3,8.3,7,7.4c0.2-0.1,0.4,0,0.3,0.3c0,0.8,0,1.5,0,2.3c0,0.9,0.2,1.8-0.1,2.6
		c-0.3,0.7-1.1,1.2-1.7,1.8C5,14.9,4.4,15.5,3.9,16C3.7,16.2,3.6,16.2,3.5,16z M7.9,18.6c-0.9,0-1.9-0.3-2.8-0.9
		c-0.3-0.2-0.4-0.3-0.1-0.5c1.1-1,2.1-2.1,3.2-3.2c0.2-0.2,0.4-0.3,0.7-0.3c1.5,0,2.9,0,4.4,0c0.4,0,0.5,0.1,0.4,0.5
		C13,16.8,10.7,18.6,7.9,18.6z"/>
	<path class="st5" d="M33.5,2.8c0-0.7-0.2-1-0.5-1c-0.6,0-1.2,0-1.8,0c-0.4,0-0.5,0.3-0.5,0.9c0,5.2,0,10.5,0,15.8
		c0,0.6,0.2,0.9,0.6,0.9c0.5,0,1.1,0,1.7,0c0.5,0,0.7-0.3,0.7-1.1c0-2.5,0-5.1,0-7.7C33.5,7.9,33.5,5.3,33.5,2.8z"/>
	<path class="st6" d="M27.8,6.5c-0.7,0-1.3,0-2,0c-0.5,0-0.7,0.3-0.7,1c0,3.6,0,7.3,0,10.9c0,0.7,0.2,1,0.7,1c0.7,0,1.3,0,1.9,0
		c0.5,0,0.7-0.3,0.7-1.1c0-1.7,0-3.5,0-5.3c0-1.9,0-3.7,0-5.5C28.4,6.8,28.2,6.5,27.8,6.5z"/>
	<path class="st7" d="M44.6,6.5c-0.7,0-1.3,0-1.9,0c-0.5,0-0.7,0.3-0.7,1c0,3.6,0,7.3,0,10.9c0,0.7,0.2,1,0.7,1c0.6,0,1.3,0,1.9,0
		c0.5,0,0.7-0.3,0.7-1.1c0-1.8,0-3.6,0-5.4c0-1.8,0-3.6,0-5.4C45.2,6.8,45.1,6.5,44.6,6.5z"/>
	<path class="st8" d="M22,9.7c-0.7,0-1.3,0-1.9,0c-0.5,0-0.7,0.3-0.7,1c0,1.3,0,2.5,0,3.8s0,2.6,0.1,3.9c0,0.7,0.1,1,0.6,1
		c0.7,0,1.3,0,1.9,0c0.5,0,0.7-0.3,0.7-1c0-2.6,0-5.1,0-7.7C22.6,10,22.4,9.7,22,9.7z"/>
	<path class="st9" d="M38.5,9.7c-0.6,0-1.1,0-1.6,0c-0.4,0-0.6,0.3-0.6,1c0,1.3,0,2.5,0,3.8s0,2.6,0.1,3.9c0,0.7,0.2,1,0.5,1
		c0.6,0,1.1,0,1.6,0c0.4,0,0.6-0.3,0.6-1c0-2.6,0-5.1,0-7.7C39,10,38.9,9.7,38.5,9.7z"/>
	<path class="st10" d="M4.8,0C3.5,0,2.2,0,0.9,0C0.3,0,0,0.3,0,0.9c0,0.7,0,1.5,0,2.2c0,0.7,0.3,1,1,1c0.6,0,1.3,0,1.9,0
		c0.6,0,1.2,0,1.8,0C5.3,4,5.6,3.8,5.6,3.2c0-0.8,0-1.5,0-2.3C5.6,0.3,5.3,0,4.8,0z M4.1,2.1c0,0.2,0,0.4-0.3,0.4
		c-0.3-0.1-0.7,0-1,0c-0.2,0-0.5,0-0.7,0c-0.3,0-0.5,0-0.5-0.4c0-0.4,0.2-0.4,0.5-0.4c0.6,0,1.1,0,1.7,0C4.2,1.7,4.1,1.9,4.1,2.1z"
		/>
	<path class="st6" d="M49.1,45.9c-1.3,0-2.6,0-3.9,0c-0.6,0-0.9,0.3-0.9,0.9c0,0.8,0,1.5,0,2.3c0,0.6,0.3,0.9,0.9,0.9
		c0.7,0,1.3,0,1.9,0c0.7,0,1.4,0,2-0.1c0.6,0,0.9-0.3,0.9-0.8c0-0.8,0-1.5,0-2.3C50,46.2,49.7,45.9,49.1,45.9z M47.9,48.4
		c-0.5,0-0.9,0-1.4,0c-0.3,0-0.5,0-0.5-0.4c0-0.5,0.3-0.4,0.6-0.4c0.1,0,0.4,0,0.6,0s0.4,0,0.7,0c0.3,0,0.5,0,0.5,0.4
		S48.2,48.4,47.9,48.4z"/>
	<path class="st11" d="M13,41.9c3.1,0,6.2,0,9.3,0c0.1,0,0.3,0,0.4,0c0.4,0,0.8,0.4,0.8,0.8c0,0.4-0.3,0.8-0.7,0.8
		c-0.1,0-0.3,0-0.4,0c-6.2,0-12.4,0-18.7,0c-0.1,0-0.3,0-0.4,0c-0.4-0.1-0.7-0.4-0.7-0.8c0-0.4,0.3-0.7,0.8-0.8c0.1,0,0.3,0,0.4,0
		C6.8,41.9,9.9,41.9,13,41.9z"/>
	<path class="st12" d="M12.9,39.5c3.1,0,6.2,0,9.3,0c0.1,0,0.3,0,0.4,0c0.4,0,0.8,0.4,0.8,0.8c0,0.4-0.3,0.8-0.8,0.8
		c-0.1,0-0.2,0-0.4,0c-6.2,0-12.4,0-18.7,0c-0.2,0-0.3,0-0.5,0c-0.4-0.1-0.7-0.4-0.7-0.8c0-0.4,0.3-0.7,0.7-0.8c0.1,0,0.3,0,0.5,0
		C6.7,39.5,9.8,39.5,12.9,39.5z"/>
	<path class="st13" d="M12.9,38.5c-3.1,0-6.1,0-9.2,0c-0.1,0-0.3,0-0.4,0c-0.5,0-0.8-0.4-0.8-0.8c0-0.4,0.3-0.8,0.8-0.8
		c0.1,0,0.2,0,0.4,0c6.2,0,12.4,0,18.7,0c0.2,0,0.3,0,0.5,0c0.4,0.1,0.7,0.4,0.7,0.8c0,0.4-0.3,0.7-0.7,0.8c-0.2,0-0.3,0-0.5,0
		C19.1,38.5,16,38.5,12.9,38.5z"/>
	<path class="st14" d="M7.3,45.2c1.3,0,2.6,0,3.9,0c0.6,0,1,0.3,1,0.8s-0.3,0.8-0.9,0.8c-2.6,0-5.2,0-7.8,0c-0.4,0-0.7-0.1-0.9-0.5
		c-0.1-0.3-0.1-0.6,0.1-0.8c0.2-0.2,0.5-0.3,0.8-0.3C4.7,45.2,6,45.2,7.3,45.2z"/>
	<path class="st14" d="M14.1,46.8c-0.8,0-1.2-0.2-1.2-0.8s0.4-0.8,1.2-0.8c0.1,0,0.2,0,0.4,0c0.5,0,0.9,0.3,0.9,0.8
		s-0.3,0.8-0.9,0.8C14.4,46.8,14.3,46.8,14.1,46.8z"/>
	<path class="st15" d="M22.2,32.3c-3.1,0-6.2,0-9.3,0c-3.1,0-6.3,0-9.5,0.1c-0.7,0-1,0.2-1,0.6c0,0.7,0,1.4,0,2.1
		c0,0.4,0.3,0.6,1,0.6c6.4,0,12.7,0,19,0c0.7,0,1-0.2,1-0.6c0-0.7,0-1.3,0-2C23.4,32.4,23.1,32.3,22.2,32.3z"/>
	<path class="st1" d="M39.5,36.7c0,0.4,0,0.7,0,1.1c0,0.7-0.3,0.9-1,1c-0.3,0-0.7-0.1-0.8,0.4c-0.1,0.3-0.4,0.4-0.7,0.4
		s-0.6-0.2-0.7-0.5c-0.1-0.4-0.3-0.4-0.6-0.3c-0.1,0-0.2,0-0.4,0c-0.4,0-0.8-0.4-0.8-0.8c0-0.4,0.3-0.8,0.8-0.8c0.7,0,1.4,0,2.1,0
		c0.4,0,0.3-0.2,0.3-0.4c0-0.3,0-0.4-0.3-0.4c-0.6,0-1.3,0-1.9,0c-0.7,0-1-0.3-1-1s0-1.4,0-2.1c0-0.7,0.3-1,1-1c0.4,0,0.6,0,0.8-0.4
		c0.2-0.6,1.1-0.5,1.3,0.1c0.1,0.3,0.3,0.4,0.6,0.4c0.1,0,0.3,0,0.4,0c0.4,0.1,0.7,0.4,0.7,0.8c0,0.4-0.3,0.7-0.8,0.7
		c-0.7,0-1.4,0-2.1,0c-0.4,0-0.4,0.2-0.4,0.4c0,0.3,0,0.4,0.4,0.4c0.6,0,1.3,0,1.9,0c0.7,0,0.9,0.3,0.9,1
		C39.5,36,39.5,36.4,39.5,36.7z"/>
	<g>
		<path class="st15" d="M37.2,27.4c-4.5,0-8.1,3.6-8.1,8.1c0,4.4,3.7,8,8.1,8c4.4,0,8-3.6,8-8S41.6,27.4,37.2,27.4z M37.1,42.7
			c-4,0-7.2-3.3-7.2-7.3s3.3-7.2,7.3-7.2c3.9,0,7.2,3.2,7.2,7.2S41.1,42.7,37.1,42.7z"/>
	</g>
</g>
</svg>
