<svg id="Layer_1" data-name="Layer 1" xmlns="http://www.w3.org/2000/svg" viewBox="0 0 100 100"><defs><style>.cls-1,.cls-2{fill:#335eea;}.cls-1{isolation:isolate;opacity:0.3;}</style></defs><path class="cls-1" d="M62.86,41.63a10.3,10.3,0,0,0-10.28-9.05c-2.74,0-5.48-.08-8.22,0a10.2,10.2,0,0,0-9.45,8c-.54,2.76-.7,5.59-1,8.4-.06.61-.22,1.32.69,1.55,2,.5,3.79,1.66,6,1.53,2.73-.17,5.48,0,8.22,0,3.06,0,6.12,0,9.19,0a9.77,9.77,0,0,0,5.57-1.92c1-.7-.15-2.55-.19-3.9A38.9,38.9,0,0,0,62.86,41.63Z"/><path class="cls-1" d="M88.93,45.38c-.3-3.21-.64-6.41-1.09-9.6a9.27,9.27,0,0,0-3-5.4C80.29,26,67.69,26.07,63,30.54c3.89,3.37,5.57,7.76,5.85,12.8.08,1.36.34,2.72.49,4.08.09.85.23,1.56,1.35,1.61a63.7,63.7,0,0,0,16.58-1.34A2,2,0,0,0,88.93,45.38Z"/><path class="cls-1" d="M31.91,28.41a9.39,9.39,0,0,0-3.26-.83,78.07,78.07,0,0,0-9.43,0A10.4,10.4,0,0,0,9.69,37c-.32,2.4-.54,4.81-.94,7.19s.57,3.51,2.82,3.86a68.47,68.47,0,0,0,11.07,1.05c5.3,0,5.43.06,6.09-5.27.52-4.16,1.34-8.1,4.19-11.36C35,30.12,34.87,29.66,31.91,28.41Z"/><path class="cls-1" d="M73.83,24.8a9.9,9.9,0,1,0,0-19.8A10,10,0,0,0,64,14.87,10,10,0,0,0,73.83,24.8Z"/><path class="cls-1" d="M23.74,24.8a10.06,10.06,0,0,0,10.07-10A9.9,9.9,0,0,0,14,14.79,10,10,0,0,0,23.74,24.8Z"/><path class="cls-1" d="M48.79,29.76a9.74,9.74,0,0,0,9.94-9.67,9.84,9.84,0,1,0-19.68-.21A9.75,9.75,0,0,0,48.79,29.76Z"/><path class="cls-2" d="M83.87,84c-.12-8-3.12-15.25-5.92-22.52-2.57-6.65-6.46-8.44-13.22-6.09a29.72,29.72,0,0,1-11.1,1.55c-1.45-.06-2.91,0-4.36,0-5.83-.08-11.59.22-17.36-1.82s-9.36.1-11.82,5.72a93.71,93.71,0,0,0-5.48,16.72A24.25,24.25,0,0,0,15,91.14C17,97,22,98.77,27.29,95.57a18.73,18.73,0,0,0,4.07-3.4,30.38,30.38,0,0,0,6.27-10.25,2.38,2.38,0,0,1,2.77-1.84,126.41,126.41,0,0,0,13.06,0c4.11-.34,6.64.49,8.21,4.86A20.39,20.39,0,0,0,71,95.71C76,98.58,80.54,97,82.66,91.58A19.05,19.05,0,0,0,83.87,84Zm-48-12.76c-1.89-.31-2.87.22-2.51,2.36.29,1.67-.16,2.79-2.08,2.15-2,.48-2.46-.51-2.19-2.08.34-2.05-.47-2.78-2.46-2.43-1.69.3-2.19-.46-2.2-2.14s.47-2.44,2.16-2.1c2.32.47,2.79-.72,2.48-2.66s.62-2.09,2.21-2.14c1.75,0,2.38.58,2.09,2.22-.37,2.11.41,3,2.56,2.58,1.69-.32,2.18.44,2.19,2.12S37.53,71.49,35.88,71.22Zm25.67.42A2.37,2.37,0,0,1,59,69a2.41,2.41,0,0,1,2.38-2.55c1.86.11,2.76,1.08,2.75,2.63A2.4,2.4,0,0,1,61.55,71.64Zm5.25,5.2a2.55,2.55,0,1,1-.13-5.09,2.42,2.42,0,0,1,2.65,2.48A2.37,2.37,0,0,1,66.8,76.84Zm-.16-10.41a2.42,2.42,0,0,1-2.5-2.68,2.39,2.39,0,0,1,2.66-2.5,2.59,2.59,0,1,1-.16,5.18ZM72,71.65a2.58,2.58,0,1,1-.1-5.15,2.52,2.52,0,0,1,2.69,2.44A2.55,2.55,0,0,1,72,71.65Z"/></svg>