<svg xmlns="http://www.w3.org/2000/svg" viewBox="0 0 100 100"><defs><style>.cls-1,.cls-2{fill:#335eea;}.cls-2{isolation:isolate;opacity:0.3;}</style></defs><g id="Layer_2" data-name="Layer 2"><path class="cls-1" d="M41.79,25.62c-1.8,1.49-3.58,3-5.41,4.47C31.19,34.24,26,38.37,20.78,42.52c-2.43,1.94-2.8,1.91-4.73-.51l-2.83-3.54a1.92,1.92,0,0,1,.34-3q7-5.59,13.93-11.16,7.92-6.35,15.83-12.72a2,2,0,0,1,3,.43q5.19,6.49,10.37,13c1.74,2.2,3.5,4.38,5.22,6.6.42.53.67.52,1.13,0,2.33-2.37,4.69-4.71,7.06-7.06C70.7,24,71.34,23.4,72,22.81a3,3,0,0,0,.56-.51c1.63-1.63,3.25-3.29,4.92-4.89.53-.51.5-.81,0-1.31-1.58-1.5-3.11-3.08-4.67-4.6a2,2,0,0,1-.63-2.33,2,2,0,0,1,2-1.12L91.74,8C93.29,8,94,8.63,94,10.18q0,8.88,0,17.76a1.85,1.85,0,0,1-1.17,1.91,1.9,1.9,0,0,1-2.18-.56c-1.61-1.61-3.25-3.2-4.84-4.84-.45-.46-.72-.47-1.17,0-2.31,2.31-4.65,4.58-7,6.87-.43.24-.67.7-1.09,1l-.27.37a5.57,5.57,0,0,0-.81.8l-9,9c-1.12,1.11-2.23,2.22-3.37,3.31a1.84,1.84,0,0,1-2.9-.13Q52,35.28,43.75,24.93a1.12,1.12,0,0,1-.13-.24c-.45-.62-.61.09-.9.2l0,0c-.25,0-.39.34-.68.24a.23.23,0,0,1-.07-.37c-.11.14-.06.26,0,.38S41.89,25.46,41.79,25.62Z"/><path class="cls-2" d="M88.56,37.83a1.89,1.89,0,0,0-2.18-2H79.81c-1.77,0-2.38.6-2.39,2.39V63h0V80.28c0,2.62,0,5.24,0,7.86a1.82,1.82,0,0,0,1.89,2c2.47,0,4.94,0,7.4,0a1.77,1.77,0,0,0,1.79-1.66,9.29,9.29,0,0,0,.06-1.29V38.75C88.57,38.44,88.58,38.13,88.56,37.83Z"/><path class="cls-2" d="M45.26,35.78c-1.55,0-3.09,0-4.63,0a11.58,11.58,0,0,0-2.94.12c-.3.2-.61.39-.9.61A1.7,1.7,0,0,0,36.38,38V88c0,1.52.66,2.17,2.21,2.18h6.57c1.67,0,2.33-.67,2.33-2.37V38.14C47.49,36.45,46.86,35.78,45.26,35.78Z"/><path class="cls-2" d="M26.79,52.42A1.71,1.71,0,0,0,25,51.17q-3.57,0-7.13,0a1.82,1.82,0,0,0-2,2q0,17.45,0,34.9a1.85,1.85,0,0,0,2,2.09c2.34,0,4.69,0,7,0a1.73,1.73,0,0,0,1.7-.89,3.61,3.61,0,0,0,.27-1.53q0-17.18,0-34.36A2.12,2.12,0,0,0,26.79,52.42Z"/><path class="cls-2" d="M68,54.05c0-1.57-.68-2.22-2.28-2.23H59.37c-1.89,0-2.48.59-2.48,2.49q0,16.41,0,32.84c0,.43,0,.86,0,1.29a1.63,1.63,0,0,0,1.27,1.61c.39.16.76,0,1.14-.07a.9.9,0,0,1,.28,0c2,0,3.92,0,5.87,0,.36,0,.74.08,1-.22a.48.48,0,0,0,0-.24.61.61,0,0,1,.07.18c-.13.21-.15.38.18.37C67.84,89.7,68,88.86,68,87.91Q68,71,68,54.05ZM61,89.37c1.63,0,3.25,0,4.88,0,.1,0,.24,0,.36,0-.1,0-.2,0-.27,0C64.32,89.36,62.67,89.37,61,89.37Z"/></g></svg>