<svg id="Layer_1" data-name="Layer 1" xmlns="http://www.w3.org/2000/svg" viewBox="0 0 100 100"><defs><style>.cls-1{isolation:isolate;opacity:0.3;}.cls-2{fill:#335eea;}</style></defs><g class="cls-1"><path class="cls-2" d="M95.24,38A44.27,44.27,0,0,0,83.48,16.66c-1.9-2-4.19-2.19-5.82-.67s-1.59,3.79.24,5.82l.5.54A38.24,38.24,0,0,1,88.86,49a38.37,38.37,0,0,1-4.27,17.88,42.71,42.71,0,0,1-7,9.66,3.69,3.69,0,0,0-.08,5.28,4,4,0,0,0,5.51.07,16.3,16.3,0,0,0,1.54-1.57Q100.64,61.86,95.24,38Z"/><path class="cls-2" d="M21.52,75.41C13,66,9.78,54.94,11.73,42.41A37.79,37.79,0,0,1,22,22c1.82-1.92,2.1-3.81.9-5.46-1.52-2.06-4.21-2-6.32.13A45.34,45.34,0,0,0,3.48,47.81,48.61,48.61,0,0,0,6.91,66.55,45.51,45.51,0,0,0,17,81.72a4,4,0,0,0,5.52.23,3.86,3.86,0,0,0,0-5.48C22.22,76.1,21.85,75.77,21.52,75.41Z"/><path class="cls-2" d="M41.62,40.74c1.57-2,1.5-4.23-.17-5.65s-3.87-1.16-5.63.71A19.26,19.26,0,0,0,36,62.37a4,4,0,0,0,5.69.37c1.51-1.38,1.52-3.66,0-5.49C37.07,51.55,37,46.56,41.62,40.74Z"/><path class="cls-2" d="M58.73,35c-1.75,1.49-1.86,3.69-.3,5.62,4.61,5.67,4.66,11,.16,16.53-1.65,2-1.64,4.16,0,5.62s3.85,1.26,5.61-.62a19.74,19.74,0,0,0,5.34-13.06,20.1,20.1,0,0,0-5.38-13.47A3.83,3.83,0,0,0,58.73,35Z"/></g><path class="cls-2" d="M82.33,42.36A33.31,33.31,0,0,0,73.63,26a3.74,3.74,0,0,0-4.19-1.2A3.67,3.67,0,0,0,66.86,28c-.18,1.5.71,2.56,1.67,3.63C74,37.79,76.32,44.9,75,53.09a24.89,24.89,0,0,1-6.85,13.5c-1.81,1.91-1.79,4.09-.16,5.65s3.87,1.36,5.7-.35c.24-.22.46-.46.68-.7A32.27,32.27,0,0,0,83,49.36,36.44,36.44,0,0,0,82.33,42.36Z"/><path class="cls-2" d="M24.94,45.35a25.31,25.31,0,0,1,6.85-14c1.88-2,1.87-4.26.12-5.81s-3.88-1.31-5.8.76a32.49,32.49,0,0,0-9,22.56,28,28,0,0,0,.57,6.33A32.45,32.45,0,0,0,26.53,72c1.24,1.25,2.68,1.85,4.42,1a3.8,3.8,0,0,0,2.35-3.43c.07-1.52-.9-2.53-1.85-3.57A24.41,24.41,0,0,1,24.94,45.35Z"/><path class="cls-2" d="M50.17,43.17a5.81,5.81,0,1,0,5.66,5.9A5.92,5.92,0,0,0,50.17,43.17Z"/></svg>