<?xml version="1.0" encoding="utf-8"?>
<!-- Generator: Adobe Illustrator 25.4.0, SVG Export Plug-In . SVG Version: 6.00 Build 0)  -->
<svg version="1.1" id="Layer_1" xmlns="http://www.w3.org/2000/svg" xmlns:xlink="http://www.w3.org/1999/xlink" x="0px" y="0px"
	 viewBox="0 0 50 50" style="enable-background:new 0 0 50 50;" xml:space="preserve">
<style type="text/css">
	.st0{fill:#45CC92;}
	.st1{fill:#4979EF;}
	.st2{fill:#8C8C8C;}
	.st3{fill:#E8540A;}
	.st4{fill:#1F338C;}
	.st5{fill:#0D2C82;}
	.st6{fill:#B5C5EA;}
	.st7{fill:#FC9E43;}
</style>
<g>
	<path class="st0" d="M16.2,22.4c-0.3-0.1-0.6-0.1-0.9-0.1c-4.2,0-8.3,0-12.5,0c-0.6,0-0.7-0.1-0.7-0.6c0-2.8,0-5.7,0-8.5
		c0-0.5,0.1-0.6,0.6-0.6c0.8,0,1.7,0,2.5,0c3.5,0,7,0,10.5,0c0.4,0,0.8,0,1.1-0.4c0.1-0.2,0.2-0.4,0.1-0.6c-0.2-0.7-0.4-0.8-1.1-0.8
		c-4.8,0-9.6,0-14.4,0c-0.9,0-1.1,0.3-1.1,1.1c0,3.7,0,7.4,0,11c0,0.9,0.3,1.1,1.1,1.1c1.4,0,2.9,0,4.3,0c0.3,0,0.4,0.1,0.4,0.4
		c0,1.3,0,1.3-1.3,1.3c-0.1,0-0.2,0-0.3,0c-0.6,0-0.9,0.3-0.9,0.8s0.4,0.8,0.9,0.8c3.8,0,7.6,0,11.4,0c0.6,0,0.9-0.3,0.9-0.8
		s-0.4-0.8-0.9-0.8c-0.4,0-0.9,0-1.3,0c-0.2,0-0.3,0-0.3-0.3C14.2,24,14.2,24,15.5,24c0.1,0,0.1,0,0.2,0c0.7,0,0.9-0.2,1.1-0.8
		C16.9,22.9,16.7,22.5,16.2,22.4z M11.4,25.8c-1.1,0-2.2,0-3.4,0c-0.3,0-0.4-0.1-0.4-0.4c0-1.3,0-1.3,1.3-1.3c0.4,0,0.9,0,1.3,0
		c0.7,0,1.4,0,2.1,0c0.2,0,0.3,0.1,0.3,0.3C12.7,25.8,12.8,25.8,11.4,25.8z"/>
	<path class="st1" d="M39.8,14.5c-0.2-0.3-0.5-0.4-0.8-0.6c-0.4-0.2-0.5-0.3-0.2-0.7c0.7-1,0.6-2.3-0.3-3.2s-2.2-1-3.2-0.3
		s-1.4,2-0.9,3.1c0.1,0.3,0.6,0.5,0.4,0.8c-0.1,0.3-0.5,0.4-0.8,0.6c-0.1,0-0.1,0.1-0.2,0.1c-0.5,0.3-0.6,0.8-0.3,1.2
		c0.2,0.4,0.7,0.5,1.2,0.2c0.4-0.2,0.7-0.5,1.1-0.7c0.1,0.9,0.1,1.7-0.4,2.5s-0.9,1.6-1.2,2.5c0,0.4,0.2,0.7,0.7,0.8
		c0.5,0.1,1.2-1,1.3-1c0.2-0.4,0.4-0.7,0.5-1.2c0.3,0.5,0.5,0.9,0.7,1.3c0,0,0.5,0.9,1,0.9s0.7-0.3,0.8-0.8c-0.3-1-0.9-2-1.2-2.7
		c-0.4-0.7-0.3-1.4-0.3-2.2c0.2,0.2,0.4,0.3,0.6,0.4c0.2,0.1,0.4,0.3,0.6,0.4c0.4,0.2,0.9,0.1,1.1-0.3
		C40.2,15.2,40.2,14.8,39.8,14.5z M36.7,12.9c-0.7,0-1.3-0.6-1.3-1.3c0-0.7,0.6-1.3,1.3-1.3c0.7,0,1.3,0.6,1.3,1.3
		C38,12.3,37.4,12.9,36.7,12.9z"/>
	<g>
		<path class="st2" d="M16.5,2.5c-1.8-1.6-3.9-2.4-6.3-2.5C7.8,0,5.7,0.9,3.9,2.5C3.5,3,3.4,3.4,3.8,3.8c0.3,0.4,0.8,0.3,1.3-0.1
			c3-2.7,7.2-2.7,10.3,0c0.5,0.5,1,0.5,1.3,0.1C17,3.4,17,2.9,16.5,2.5z"/>
		<path class="st2" d="M10.2,3.3c-1.5,0.1-2.9,0.6-4,1.6C5.8,5.3,5.7,5.8,6,6.2c0.3,0.4,0.8,0.4,1.3,0c1.9-1.6,4-1.6,5.8,0
			c0.4,0.3,0.9,0.4,1.2,0c0.4-0.4,0.3-0.9-0.1-1.3C13.1,3.8,11.7,3.3,10.2,3.3z"/>
		<path class="st2" d="M10.2,6.7c-0.7,0-1.3,0.2-1.7,0.7C8.1,7.7,8.1,8.2,8.4,8.5c0.3,0.3,0.8,0.4,1.2,0.2c0.4-0.4,0.8-0.4,1.3,0
			C11.2,9,11.7,9,12,8.6c0.3-0.4,0.3-0.9-0.1-1.2C11.4,6.9,10.9,6.7,10.2,6.7z"/>
	</g>
	<path class="st0" d="M30.1,38.3c-0.4,0-0.8-0.4-0.8-0.8c0-0.5,0.4-0.9,0.8-0.9s0.8,0.4,0.8,0.8C30.9,37.9,30.6,38.3,30.1,38.3z"/>
	<path class="st3" d="M32.4,40c-0.3-0.1-0.5-0.3-0.6-0.6c0-0.8,0.5-1.2,1.1-1c0.4,0.2,0.6,0.5,0.5,0.9C33.3,39.7,33,40,32.4,40z"/>
	<path class="st4" d="M21.7,38.7c-0.2-0.2-0.4-0.4-0.7-0.4c-0.1,0-0.2,0-0.3,0c-0.5,0.1-0.7-0.2-0.6-0.6c0-0.1,0-0.1,0.1-0.2
		c-0.1-0.6-0.3-0.8-1.1-0.8c-0.4,0.2-0.7,0.5-0.6,1c0.1,0.6-0.2,0.7-0.7,0.7c-0.6-0.1-1,0.3-1,0.8s0.4,0.8,1,0.8
		c0.6,0,0.7,0.1,0.7,0.7c0,0.6,0.4,1,0.9,1s0.8-0.4,0.8-1c-0.1-0.5,0-0.7,0.6-0.7C21.7,40.1,22,39.5,21.7,38.7z"/>
	<path class="st3" d="M25.1,10.8c-0.3,0-0.6,0-0.9,0c-0.5,0-0.8-0.4-0.8-0.8c0-0.5,0.3-0.8,0.8-0.8c0.6,0,1.1,0,1.7,0
		c0.5,0,0.8,0.4,0.8,0.8c0,0.5-0.3,0.8-0.8,0.8C25.7,10.8,25.4,10.8,25.1,10.8L25.1,10.8z"/>
	<path class="st5" d="M13,16.7c-1.6-0.8-3.2-1.6-4.8-2.4c-0.7-0.3-1.3,0-1.3,0.8c0,0.5,0,1,0,1.5c0,1,0,2.1,0.1,3.3
		c0,0.8,0.5,1.2,1.3,0.8c0.9-0.4,1.7-0.9,2.6-1.3c0.7-0.4,1.4-0.7,2.1-1.1c0.4-0.2,0.6-0.4,0.6-0.8S13.3,16.9,13,16.7z M8.5,18.6
		c0-0.8,0-1.5,0-2.3c0.8,0.4,1.5,0.8,2.3,1.2C10,17.9,9.3,18.3,8.5,18.6z"/>
	<path class="st6" d="M30.9,40.9c0,0.4-0.4,0.8-0.8,0.8c-0.5,0-0.8-0.4-0.8-0.9c0-0.4,0.4-0.8,0.9-0.8C30.6,40,30.9,40.4,30.9,40.9z
		"/>
	<g>
		<path class="st1" d="M50,13.6c0-0.8-0.3-1.1-1.1-1.1c-1.7,0-3.4,0-5.1,0c-0.4,0-0.5-0.1-0.5-0.5c0-1.7,0-3.4,0-5.1
			c0-0.8-0.3-1.1-1.1-1.1c-2.6,0-5.1,0-7.7,0c-0.8,0-1.6,0-2.4,0c-0.3,0-0.4-0.1-0.4-0.4c0-0.4,0-0.6,0.4-0.9c1.1-0.6,1.5-2,1-3.1
			c-0.5-1.1-1.8-1.8-2.9-1.4c-1,0.3-1.7,1.1-1.8,2.1c-0.1,1,0.4,2,1.3,2.5c0.5,0.3,0.4,0.7,0.3,1c0,0.3-0.4,0.2-0.6,0.2
			c-3.3,0-6.6,0-9.9,0c-0.8,0-1.1,0.3-1.1,1.1c0,1.6,0,3.2,0,4.7c-0.2,0.2-0.2,0.5-0.2,0.7c0,3.4,0,6.9,0,10.3c0,0.2,0,0.5,0.2,0.7
			c0.2,0.7,0.4,0.8,1.1,0.8c2,0,4,0,6,0c1.3,0,1.3,0,1.3,1.3c0,0.3-0.1,0.4-0.4,0.4c-0.9,0-1.9,0-2.8,0c-0.6,0-0.9,0.3-0.9,0.8
			s0.4,0.8,0.9,0.8c4.9,0,9.8,0,14.7,0c0.6,0,0.9-0.3,0.9-0.8s-0.4-0.8-0.9-0.8c-0.7,0-1.3,0-2,0c-1.3,0-1.3,0-1.3-1.4
			c0-0.2,0.1-0.3,0.3-0.3c2.4,0,4.8,0,7.1,0c0.4,0.1,0.7-0.1,0.9-0.4c0-0.1,0-0.2,0-0.4c0-0.7,0-1.3,0-2c0-0.2,0.1-0.2,0.2-0.3
			c0.1-0.1,0.2-0.1,0.4-0.1c0.6,0,1.2,0,1.9,0c0.6,0,1.2,0,1.8,0c0.1,0,0.3,0,0.4,0c0.2,0,0.3,0.1,0.3,0.3c0,0.9,0,1.9,0,2.9
			c0,0.6,0.2,1.3-0.1,1.7c-0.3,0.4-1,0.1-1.6,0.1c-1.4,0-2.8,0-4.1,0c0-0.1-0.8,0.2-0.7,0.6c0.1,0.5,0.4,0.7,1,0.7c0.3,0,0.7,0,1,0
			c0.4,0,0.9-0.2,1.2,0.1c0.2,0.2,0.1,0.8,0.1,1.2c0,1-0.2,1.3-1.2,1.3c-5.6,0-11.3,0-16.9,0c-1.3,0-2.3,0.8-2.6,2.1
			c-0.1,0.2,0,0.5,0,0.8h1.6c0-0.3,0-0.6,0.1-0.9c0.2-0.4,0.6-0.4,1-0.4c5.7,0,11.4,0,17,0c1.5,0,2.6-1.1,2.6-2.6c0-0.3,0-0.7,0-1
			c-0.1-0.5,0.1-0.5,0.5-0.5c0.6,0,1.1,0,1.7,0c0.9,0,1.1-0.3,1.1-1.1C50,22.1,50,17.9,50,13.6z M29.6,2.5c0-0.7,0.6-1.3,1.3-1.3
			c0.7,0,1.3,0.6,1.3,1.3c0,0.7-0.6,1.3-1.3,1.3C30.2,3.9,29.6,3.3,29.6,2.5z M26.8,22.1c0,0.5-0.2,0.5-0.5,0.5
			c-0.2,0-0.3-0.1-0.5-0.1c-0.6,0-1.3,0-2,0c-0.1,0-0.3,0.1-0.3-0.2c0-0.7-0.1-1.4,0-2.2c0-0.2,0-0.3,0.1-0.4
			c0.1-0.4,0.4-0.5,0.7-0.5c0.5,0,1.1,0,1.6,0s0.9,0.3,0.9,0.9C26.8,20.8,26.8,21.4,26.8,22.1z M23.6,15.4c0-0.4,0.2-0.6,0.5-0.8
			c0.8-0.6,1.7-0.5,2.3,0.2c0.6,0.7,0.5,1.7-0.2,2.3c-0.2,0.2-0.4,0.3-0.6,0.3c-0.6,0.2-1.2,0-1.6-0.4C23.5,16.6,23.3,16,23.6,15.4z
			 M32.2,25.8c-1.1,0-2.2,0-3.4,0c-0.3,0-0.4-0.1-0.4-0.4c0-1.3,0-1.3,1.3-1.3c0.4,0,0.8,0,1.2,0c0.7,0,1.4,0,2.2,0
			c0.2,0,0.3,0.1,0.3,0.3C33.5,25.8,33.5,25.8,32.2,25.8z M29.9,19.4c0.2-0.2,0.5-0.4,0.7-0.5c0.2-0.2,0.3-0.2,0.6,0
			c0.3,0.3,0.2,0.5-0.1,0.8c-0.7,0.9-1.4,1.7-2,2.6c-0.1,0.2-0.3,0.2-0.4,0.2c-0.2,0-0.1-0.2-0.1-0.4c0-0.1,0-0.1,0-0.2
			C28.6,20.3,28.6,20.3,29.9,19.4C29.9,19.4,29.9,19.4,29.9,19.4z M41.7,20C41.7,20,41.7,20.1,41.7,20c0,0.8,0,1.5,0,2.2
			c0,0.3-0.1,0.3-0.3,0.3c-3.4,0-6.8,0-10.2,0c0,0-0.1,0-0.1-0.1c0.7-0.9,1.4-1.7,2-2.5c0.5-0.7,0.4-1-0.2-1.6
			c-0.4-0.4-0.9-0.9-1.3-1.3c-0.4-0.4-0.8-0.5-1.3-0.1c-0.7,0.5-1.4,1-2,1.5c-0.2,0.2-0.3,0.2-0.5,0c-0.1-0.2-0.3-0.3-0.1-0.5
			c1-1.4,0.9-3-0.1-4.2s-2.6-1.5-4.1-0.8h-0.1c-1.8,1.3-2.1,3.1-0.9,5c0.1,0.2,0.1,0.3,0,0.4c-0.6,0.6-0.7,1.3-0.7,2
			c0,0.6,0,1.3,0,1.9c0,0.2-0.1,0.3-0.3,0.3h-0.1c-1.3,0-1.3,0-1.3-1.2c0-4.4,0-8.8,0-13.2c0-0.4,0.1-0.6,0.5-0.5
			c0.7-0.1,1.4-0.1,2-0.1c0,0.1,0,0.1,0,0.2c0,0,0.1-0.1,0.1-0.1c1,0,1.9,0,2.9,0c5.2,0,10.4,0,15.6,0c0.4,0,0.5,0.1,0.5,0.5
			C41.7,12.1,41.7,16,41.7,20z M47.1,19.2c-0.4,0-2.6-0.1-3.4-0.1c-0.2,0-0.3-0.1-0.3-0.3c-0.1-1.4-0.1-1.4,1.3-1.4
			c0.3,0.1,2.6,0.1,3.4,0.1c0.2,0,0.3,0.1,0.3,0.3C48.5,19.2,48.5,19.2,47.1,19.2z M47.1,15.9c-0.4,0-2.6-0.1-3.4-0.1
			c-0.2,0-0.3-0.1-0.3-0.3c-0.1-1.4-0.1-1.4,1.3-1.4c0.3,0.1,2.6,0.1,3.4,0.1c0.2,0,0.3,0.1,0.3,0.3C48.5,15.9,48.5,15.9,47.1,15.9z
			"/>
	</g>
	<g>
		<path class="st7" d="M35.9,43.3c-0.5-0.1-0.9,0.2-1,0.9c0,0.3,0,0.7,0,1c0,0.2,0,0.5,0,0.7c0,1.3-1.1,2.4-2.3,2.4
			c-1.3,0-2.4-1.1-2.4-2.4c0-0.5,0-0.9,0-1.4c0.1-0.8-0.2-1.3-1-1.6c-0.6-0.2-1.1-0.6-1.5-1.1c-0.3-0.4-0.5-0.8-0.7-1.2
			c-0.2-0.4-0.5-0.6-1-0.6c-0.7,0-1.3,0-2,0c-0.5,0-0.8,0.2-1,0.6c-0.5,1.2-1.3,2-2.5,2.5c-0.4,0.1-0.6,0.5-0.6,1c0,0.6,0,1.2,0,1.8
			c0,1.3-1.1,2.4-2.3,2.4c-1.3,0-2.4-1.1-2.4-2.4c0-2.3,0-4.5,0-6.7c0-1.9,1.3-3.5,3.1-3.9c0.3,0,0.7,0,1-0.1c0.5,0,0.8-0.4,0.7-0.9
			c-0.2-0.7-0.4-0.8-1.1-0.8c-2.9,0.1-5.4,2.6-5.5,5.6c0,2.3,0,4.7,0,7c0.1,2.1,1.7,3.8,3.8,4c2.1,0.2,4-1.2,4.4-3.3
			c0.1-0.7,0.1-1.3,0.1-1.9c0-0.2,0.1-0.4,0.3-0.5c1-0.5,1.8-1.3,2.3-2.3c0.2-0.4,0.5-0.3,0.8-0.3c0.3,0,0.5,0,0.7,0.3
			c0.3,0.7,0.8,1.4,1.5,1.7c1,0.4,1.1,1.2,1.1,2.2c0,2.1,1.7,3.8,3.8,4c2.1,0.2,4-1.2,4.4-3.3c0.2-0.8,0.1-1.5,0.1-2.3
			C36.7,43.7,36.6,43.5,35.9,43.3z"/>
		<path class="st7" d="M30.9,33c-1.3,0-2.7,0-4,0c-0.3,0-0.7,0.1-0.8-0.1c0,0,0,0,0,0h-1.7c0,0.1-0.1,0.2-0.2,0.2
			c-0.3,0.2-0.9,0-1.3,0c-0.7,0-0.9,0.2-1,0.8c-0.1,0.5,0.1,0.8,0.6,0.9c0.3,0.1,0.5,0.1,0.8,0.1c2.5,0,5,0,7.4,0
			c2.7,0,4.3,1.7,4.3,4.3c0,0.5,0,0.9,0,1.4c0.1,0.6,0.4,0.9,1,0.8c0.7-0.2,0.8-0.4,0.8-1.1c0-0.4,0-0.9,0-1.3
			C36.8,35.6,34.3,33,30.9,33z"/>
	</g>
</g>
</svg>
