<?xml version="1.0" encoding="utf-8"?>
<!-- Generator: Adobe Illustrator 25.4.0, SVG Export Plug-In . SVG Version: 6.00 Build 0)  -->
<svg version="1.1" id="Layer_1" xmlns="http://www.w3.org/2000/svg" xmlns:xlink="http://www.w3.org/1999/xlink" x="0px" y="0px"
	 viewBox="0 0 50 50" style="enable-background:new 0 0 50 50;" xml:space="preserve">
<style type="text/css">
	.st0{fill:#4979EF;}
	.st1{fill:#FC9E43;}
	.st2{fill:#3F3F3F;}
	.st3{fill:#1F338C;}
	.st4{fill:#B5C5EA;}
	.st5{fill:#45CC92;}
</style>
<path class="st0" d="M46.3,40.3c-1.7-0.8-3.4-1.5-5.1-2.3c-0.2-0.1-0.5-0.1-0.4-0.4c0.1-0.4-0.2-0.8,0.3-1.2
	c1.3-0.9,2.3-2.1,2.7-3.6c0.1-0.2,0.2-0.3,0.4-0.3c0.5,0,0.9,0,1.4,0c1.1,0,1.8-0.7,1.8-1.8c0-1,0-2.1,0-3.1c0-0.9-0.5-1.5-1.4-1.7
	c-0.3-0.1-0.3-0.1-0.3-0.4c0-0.8,0-1.6-0.1-2.4c-0.5-3.8-3.5-6.7-7.5-7.2c-3.6-0.4-7.3,1.9-8.6,5.4c-0.5,1.4-0.6,2.8-0.5,4.2
	c0,0.3-0.1,0.4-0.4,0.5c-0.8,0.2-1.3,0.8-1.3,1.7c0,1.1,0,2.2,0,3.2s0.7,1.7,1.7,1.7c0.5,0,0.9,0,1.4,0c0.3,0,0.5,0.1,0.6,0.4
	c0.5,1.5,1.4,2.7,2.7,3.5c0.5,0.3,0.3,0.8,0.3,1.2c0.1,0.4-0.3,0.4-0.5,0.4c-1.8,0.8-3.6,1.6-5.4,2.5c-1.8,0.9-2.9,2.3-3.2,4.3
	c-0.2,1.3-0.1,2.7-0.1,4.1c0,0.9,0.3,1.1,1.1,1.1c3.8,0,7.6,0,11.4,0s7.7,0,11.5,0c0.8,0,1-0.3,1.1-1c0-1,0-2,0-3
	C50,43.3,48.8,41.4,46.3,40.3z M45.8,28.8c0,0.1,0,0.2,0,0.3c0,0.5,0,0.9,0,1.4c0,0.2-0.1,0.3-0.3,0.3h-0.1c-1.3,0-1.3,0-1.3-1.2
	c0-0.6,0-1.2,0-1.8c0-0.2,0.1-0.3,0.3-0.3C45.8,27.4,45.8,27.4,45.8,28.8z M30.8,30.5c0,0.2,0,0.3-0.2,0.3h-0.1
	c-1.3,0.1-1.3,0.1-1.3-1.3c-0.1-0.1-0.1-0.3-0.1-0.4c0-0.2,0-0.4,0-0.6c0-0.3-0.2-0.9,0.1-1c0.4-0.2,0.9-0.1,1.4-0.1
	c0.2,0,0.2,0.1,0.2,0.3C30.8,28.6,30.8,29.6,30.8,30.5z M30.8,24.9c-0.1-2.7,0.8-4.8,3-6.3s4.6-1.6,7-0.3c2.5,1.4,3.5,3.6,3.4,6.4
	c-0.9-4.1-4.1-5.6-6.7-5.6C34.2,19.1,31.7,21.2,30.8,24.9z M42.5,26.5c-0.5-0.3-0.5-0.7-0.6-1.1c-0.5-1.5-0.9-1.6-2.1-0.6
	c-1.1,0.9-2.3,1.7-3.7,1.8c-1.1,0.1-2.2,0-3.3,0.1c-0.2,0-0.3-0.1-0.3-0.3c-0.2-2.7,1.6-5.1,4.4-5.5c2.6-0.3,5,1.5,5.5,4.1
	C42.5,25.4,42.5,25.9,42.5,26.5z M32.5,30.9c0-0.7,0-1.5,0-2.2c0-0.3,0.1-0.4,0.4-0.4c1.1,0,2.2,0.1,3.3-0.1
	c1.5-0.2,2.2-0.5,4.2-1.9c0.3,1,0.9,1.7,1.9,1.9c0.1,0,0.2,0.1,0.2,0.2c-0.1,1.3,0.2,2.5-0.2,3.8c-0.7,2.3-3,3.8-5.3,3.5
	C34.5,35.4,32.6,33.4,32.5,30.9z M35.8,37.3c0.6,0.1,1.1,0.2,1.7,0.2c0.5,0,1.1-0.1,1.6-0.2c0.1,0.3,0,0.5,0,0.8
	c0,1.1-0.7,1.9-1.7,1.9s-1.7-0.8-1.6-1.9C35.8,37.8,35.7,37.6,35.8,37.3z M48.3,48c0,0.2-0.1,0.3-0.3,0.3c-0.4,0-0.9,0-1.3,0
	c-0.4,0-0.8,0-1.1,0C45,48.4,45,48.2,45,47.8c0-0.8,0-1.6,0-2.5c0-0.3-0.1-0.3-0.4-0.4c-1.3,0-1.3,0-1.3,1.3c0,0.5,0,1.1,0,1.6
	c0,0.4-0.1,0.5-0.5,0.5c-3.4,0-6.9,0-10.3,0c-0.9,0-0.9,0-0.9-1c0-0.7,0-1.4,0-2c0-0.3-0.1-0.4-0.3-0.4c-1.3,0-1.3-0.1-1.3,1.2
	c0,0.6,0,1.2,0,1.8c0,0.2-0.1,0.3-0.3,0.3c-0.9,0-1.8,0-2.7,0c-0.2,0-0.3,0-0.3-0.2c0-1-0.1-2.1,0.1-3.1c0.2-1.4,1-2.4,2.3-3
	c1.7-0.8,3.4-1.5,5-2.3c0.3-0.1,0.4-0.1,0.5,0.2c0.6,1.2,1.6,1.8,2.9,1.8s2.3-0.6,2.9-1.8c0.1-0.3,0.3-0.3,0.5-0.2
	c1.6,0.8,3.3,1.5,4.9,2.3c1.6,0.8,2.4,2.1,2.5,3.9C48.3,46.5,48.3,47.3,48.3,48z"/>
<path class="st0" d="M21.4,24.3c-1.7-0.8-3.4-1.5-5.1-2.3c-0.2-0.1-0.5-0.1-0.4-0.4c0.1-0.4-0.2-0.8,0.3-1.2
	c1.3-0.9,2.3-2.1,2.7-3.6c0.1-0.2,0.2-0.3,0.4-0.3c0.5,0,0.9,0,1.4,0c1.1,0,1.8-0.7,1.8-1.8c0-1,0-2.1,0-3.1c0-0.9-0.5-1.5-1.4-1.7
	c-0.3-0.1-0.3-0.1-0.3-0.4c0-0.8,0-1.6-0.1-2.4c-0.5-3.8-3.5-6.7-7.5-7.2C9.6-0.5,5.9,1.8,4.6,5.3C4.1,6.7,4,8.1,4.1,9.5
	C4.1,9.8,4,9.9,3.7,10c-0.8,0.2-1.3,0.8-1.3,1.7c0,1.1,0,2.2,0,3.2s0.7,1.7,1.7,1.7c0.5,0,0.9,0,1.4,0c0.3,0,0.5,0.1,0.6,0.4
	c0.5,1.5,1.4,2.7,2.7,3.5c0.5,0.3,0.3,0.8,0.3,1.2c0.1,0.4-0.3,0.4-0.5,0.4c-1.8,0.8-3.6,1.6-5.4,2.5c-1.8,0.9-2.9,2.3-3.2,4.3
	c-0.2,1.3-0.1,2.7-0.1,4.1c0,0.9,0.3,1.1,1.1,1.1c3.8,0,7.6,0,11.4,0s7.7,0,11.5,0c0.8,0,1-0.3,1.1-1c0-1,0-2,0-3
	C25.1,27.3,23.9,25.4,21.4,24.3z M20.9,12.8c0,0.1,0,0.2,0,0.3c0,0.5,0,0.9,0,1.4c0,0.2-0.1,0.3-0.3,0.3h-0.1c-1.3,0-1.3,0-1.3-1.2
	c0-0.6,0-1.2,0-1.8c0-0.2,0.1-0.3,0.3-0.3C20.9,11.4,20.9,11.4,20.9,12.8z M5.9,14.5c0,0.2,0,0.3-0.2,0.3H5.6
	c-1.3,0.1-1.3,0.1-1.3-1.3c-0.1-0.1-0.1-0.3-0.1-0.4c0-0.2,0-0.4,0-0.6c0-0.3-0.2-0.9,0.1-1c0.4-0.2,0.9-0.1,1.4-0.1
	c0.2,0,0.2,0.1,0.2,0.3C5.9,12.6,5.9,13.6,5.9,14.5z M5.9,8.9c-0.1-2.7,0.8-4.8,3-6.3s4.6-1.6,7-0.3c2.5,1.4,3.5,3.6,3.4,6.4
	c-0.9-4.1-4.1-5.6-6.7-5.6C9.3,3.1,6.8,5.2,5.9,8.9z M17.6,10.5c-0.5-0.3-0.5-0.7-0.6-1.1c-0.5-1.5-0.9-1.6-2.1-0.6
	c-1.1,0.9-2.3,1.7-3.7,1.8c-1.1,0.1-2.2,0-3.3,0.1c-0.2,0-0.3-0.1-0.3-0.3C7.4,7.7,9.2,5.3,12,4.9c2.6-0.3,5,1.5,5.5,4.1
	C17.6,9.4,17.6,9.9,17.6,10.5z M7.6,14.9c0-0.7,0-1.5,0-2.2c0-0.3,0.1-0.4,0.4-0.4c1.1,0,2.2,0.1,3.3-0.1c1.5-0.2,2.2-0.5,4.2-1.9
	c0.3,1,0.9,1.7,1.9,1.9c0.1,0,0.2,0.1,0.2,0.2c-0.1,1.3,0.2,2.5-0.2,3.8c-0.7,2.3-3,3.8-5.3,3.5C9.6,19.4,7.7,17.4,7.6,14.9z
	 M10.9,21.3c0.6,0.1,1.1,0.2,1.7,0.2c0.5,0,1.1-0.1,1.6-0.2c0.1,0.3,0,0.5,0,0.8c0,1.1-0.7,1.9-1.7,1.9s-1.7-0.8-1.6-1.9
	C10.9,21.8,10.8,21.6,10.9,21.3z M23.4,32c0,0.2-0.1,0.3-0.3,0.3c-0.4,0-0.9,0-1.3,0c-0.4,0-0.8,0-1.1,0c-0.6,0.1-0.6-0.1-0.6-0.5
	c0-0.8,0-1.6,0-2.5c0-0.3-0.1-0.3-0.4-0.4c-1.3,0-1.3,0-1.3,1.3c0,0.5,0,1.1,0,1.6c0,0.4-0.1,0.5-0.5,0.5c-3.4,0-6.9,0-10.3,0
	c-0.9,0-0.9,0-0.9-1c0-0.7,0-1.4,0-2c0-0.3-0.1-0.4-0.3-0.4c-1.3,0-1.3-0.1-1.3,1.2c0,0.6,0,1.2,0,1.8c0,0.2-0.1,0.3-0.3,0.3
	c-0.9,0-1.8,0-2.7,0c-0.2,0-0.3,0-0.3-0.2c0-1-0.1-2.1,0.1-3.1c0.2-1.4,1-2.4,2.3-3c1.7-0.8,3.4-1.5,5-2.3c0.3-0.1,0.4-0.1,0.5,0.2
	c0.6,1.2,1.6,1.8,2.9,1.8s2.3-0.6,2.9-1.8c0.1-0.3,0.3-0.3,0.5-0.2c1.6,0.8,3.3,1.5,4.9,2.3c1.6,0.8,2.4,2.1,2.5,3.9
	C23.4,30.5,23.4,31.3,23.4,32z"/>
<path class="st1" d="M42.4,2.4c-1.6,0-3.3,0-4.9,0c-1.8,0-3.5,0-5.2,0C29.2,2.5,26.4,4.9,26,8c-0.3,1.8-0.1,3.5-0.1,5.3
	c0,1.4,1.1,2.5,2.5,2.5c0.7,0,1.5,0,2.2,0c0.4,0,0.7-0.1,1-0.4c1.2-0.9,2.3-1.8,3.4-2.7c0.3-0.2,0.6-0.3,1-0.3c1,0,2.1,0,3.2,0
	c0.4,0,0.7,0.2,1,0.4c1.1,0.9,2.2,1.8,3.3,2.7c0.3,0.2,0.6,0.3,1,0.3c0.7,0,1.4,0,2.1,0c1.5,0,2.6-1.1,2.6-2.7c0-1.4,0-2.7,0-4
	C49.1,5.3,46.2,2.4,42.4,2.4z M47.4,13.1c0,0.7-0.3,0.9-1,1c-1.4,0.2-2.6-0.2-3.6-1.2c-0.6-0.6-1.4-1.1-2-1.6
	c-0.5-0.4-1-0.5-1.6-0.5c-1.2,0-2.4,0-3.6,0c-0.6,0-1.2,0.2-1.7,0.6c-1.1,0.8-2.1,1.7-3.2,2.5c-0.2,0.2-0.4,0.3-0.7,0.2
	c-0.5,0-1,0-1.5,0c-0.9,0-1.1-0.3-1.1-1.1c0-0.7,0-1.4,0-2.2c0.1-0.9-0.1-2,0.2-3.1c0.6-2.1,2.5-3.6,4.7-3.7c3.4,0,6.9,0,10.3,0
	c2.6,0,4.8,2.2,4.8,4.9C47.4,10.3,47.4,11.7,47.4,13.1z"/>
<path class="st1" d="M17.5,35.7c-3.4,0-6.8,0-10.2,0c-3,0-5.7,2.2-6.4,5.1c-0.3,1.2-0.2,2.3-0.2,3.3s0,1.8-0.1,2.5
	c0,1.4,1.1,2.5,2.5,2.5c0.7,0,1.5,0,2.2,0c0.4,0.1,0.7-0.1,1-0.3c1.1-0.9,2.3-1.8,3.4-2.7c0.3-0.2,0.5-0.3,0.9-0.3
	c1.1,0,2.2,0,3.3,0c0.4,0,0.7,0.1,1,0.3c1.1,0.9,2.3,1.8,3.4,2.7c0.3,0.2,0.6,0.3,1,0.3c0.7,0,1.5,0,2.2,0c1.5,0,2.6-1.1,2.6-2.6
	c0-1.4,0-2.8,0-4.2C24,38.7,21.1,35.7,17.5,35.7z M22.4,46.5c0,0.7-0.3,1-1,1c-1.4,0.2-2.5-0.1-3.5-1.2c-0.6-0.6-1.3-1.1-2-1.6
	c-0.5-0.4-1.1-0.6-1.7-0.6c-1.2,0-2.3,0-3.5,0c-0.7,0-1.2,0.2-1.7,0.6c-1.1,0.8-2.1,1.7-3.2,2.5c-0.2,0.2-0.4,0.2-0.7,0.2
	c-0.6,0-1.2,0-1.8,0c-0.5,0-0.8-0.3-0.8-0.8c0-1.7-0.2-3.4,0.1-5.2c0.3-2.3,2.4-4,4.7-4.1c0.1,0,0.1,0,0.2,0
	c1.6,0.2,3.2,0.2,4.9,0.2c1.6,0,3.2,0,4.9,0c3,0,5.1,2.2,5.1,5.1C22.4,43.9,22.4,45.2,22.4,46.5z"/>
<path class="st2" d="M9.9,13.2c-0.8,0-0.8,0-0.8,0.8c0,0.9,0,0.9,0.9,0.9c0.8,0,0.8,0,0.8-0.8C10.8,13.2,10.8,13.2,9.9,13.2z"/>
<path class="st2" d="M14.9,13.2c-0.8,0-0.8,0-0.8,0.8c0,0.9,0,0.9,0.9,0.9c0.8,0,0.8,0,0.8-0.8C15.8,13.3,15.8,13.3,14.9,13.2z"/>
<path class="st2" d="M35,29.1c-0.9,0-0.9,0-0.9,0.9c0,0.8,0,0.8,0.8,0.8c0.9,0,0.9,0,0.9-0.9C35.8,29.1,35.8,29.1,35,29.1z"/>
<path class="st2" d="M40,29.1c-0.9,0-0.9,0-0.9,0.9c0,0.8,0,0.8,0.8,0.8c0.9,0,0.9,0,0.9-0.9C40.8,29.1,40.8,29.1,40,29.1z"/>
<path class="st3" d="M31.6,10.7c-0.8,0-0.8,0-0.8-0.8c0-0.9,0-0.9-0.9-0.9c-0.8,0-0.8,0-0.8-0.8c0-0.9,0-0.9,0.9-0.9
	c0.8,0,0.8,0,0.8-0.8c0-0.9,0-0.9,0.9-0.9c0.8,0,0.8,0,0.8,0.8c0,0.9,0,0.9,0.9,0.9c0.8,0,0.8,0,0.8,0.8c0,0.9,0,0.9-0.9,0.9
	c-0.8,0-0.8,0-0.8,0.8C32.5,10.7,32.5,10.7,31.6,10.7z"/>
<path class="st4" d="M40,6.6c0,0.8,0,0.8-0.8,0.8c-0.9,0-0.9,0-0.9-0.9c0-0.8,0-0.8,0.8-0.8C40,5.7,40,5.7,40,6.6z"/>
<path class="st5" d="M35.8,7.4c-0.9,0-0.9,0-0.9-0.8s0-0.8,0.8-0.8c0.9,0,0.9,0,0.9,0.8S36.6,7.4,35.8,7.4z"/>
<path class="st3" d="M9.1,41.6c0,0.8,0,0.8-0.8,0.8s-0.8,0-0.8,0.8s0,0.8-0.8,0.8s-0.8,0-0.8-0.8c0-0.9,0-0.9-0.9-0.9
	c-0.8,0-0.8,0-0.8-0.8s0-0.8,0.8-0.8s0.8,0,0.8-0.8s0-0.8,0.8-0.8s0.8,0,0.8,0.8c0,0.9,0,0.9,0.9,0.9C9.1,40.8,9.1,40.8,9.1,41.6z"
	/>
<path class="st4" d="M14.9,40c0,0.8,0,0.8-1,0.8c-0.6,0-0.6,0-0.6-1c0-0.6,0-0.6,1.1-0.6C14.9,39.1,14.9,39.1,14.9,40z"/>
<path class="st5" d="M11.6,40c0,0.8,0,0.8-0.8,0.8c-0.9,0-0.9,0-0.9-0.9c0-0.8,0-0.8,0.8-0.8C11.6,39.1,11.6,39.1,11.6,40z"/>
<path class="st3" d="M42.1,8.3c0-0.3,0.1-0.5,0.3-0.8h-1.5V9h1.5C42.2,8.8,42.1,8.5,42.1,8.3z"/>
<path class="st3" d="M43.3,7.1c0.3,0,0.6,0.1,0.8,0.3V5.8h-1.5v1.5C42.8,7.2,43,7.1,43.3,7.1z"/>
<path class="st3" d="M43.3,9.5c-0.3,0-0.5-0.1-0.7-0.3v1.5h1.5V9.2C43.8,9.3,43.6,9.5,43.3,9.5z"/>
<path class="st3" d="M44.2,7.5c0.2,0.2,0.3,0.5,0.3,0.8c0,0.3-0.1,0.5-0.3,0.7h1.5V7.5H44.2z"/>
<path class="st3" d="M17.1,41.7c0-0.3,0.1-0.5,0.3-0.8h-1.5v1.5h1.5C17.2,42.2,17.1,42,17.1,41.7z"/>
<path class="st3" d="M18.3,40.5c0.3,0,0.6,0.1,0.8,0.3v-1.5h-1.5v1.5C17.8,40.6,18,40.5,18.3,40.5z"/>
<path class="st3" d="M18.3,42.9c-0.3,0-0.5-0.1-0.7-0.3v1.5h1.5v-1.5C18.8,42.8,18.6,42.9,18.3,42.9z"/>
<path class="st3" d="M19.2,41c0.2,0.2,0.3,0.5,0.3,0.8c0,0.3-0.1,0.5-0.3,0.7h1.5V41H19.2z"/>
</svg>
