<?xml version="1.0" encoding="utf-8"?>
<!-- Generator: Adobe Illustrator 25.3.1, SVG Export Plug-In . SVG Version: 6.00 Build 0)  -->
<svg version="1.1" id="Layer_1" xmlns="http://www.w3.org/2000/svg" xmlns:xlink="http://www.w3.org/1999/xlink" x="0px" y="0px"
	 viewBox="0 0 36.2 19" style="enable-background:new 0 0 36.2 19;" xml:space="preserve">
<style type="text/css">
	.st0{fill:#F2AB30;}
	.st1{fill:#FFFFFF;}
</style>
<path class="st0" d="M3.3,4.9C3.1,4.7,3,4.6,2.8,4.4c-0.5-0.5-1-1-1.6-1.6c-0.1-0.1-0.1-0.2,0-0.3c0.6-0.6,1.3-1.3,1.9-1.9
	c0.1-0.1,0.2-0.1,0.3,0c0.6,0.7,1.3,1.3,1.9,1.9c0.1,0.1,0.2,0.2,0,0.3C4.8,3.5,4.1,4.2,3.3,4.9z"/>
<g>
	<path class="st1" d="M31.7,5.8c-0.1,0-0.2,0.1-0.2,0.2c-0.3,1.1-0.6,2.1-0.9,3.2c-0.2,0.7-0.4,1.5-0.5,2.2
		c-0.1,0.2-0.1,0.5-0.1,0.7c-0.1,0-0.1-0.1-0.1-0.1c-0.1-0.5-0.2-1.1-0.4-1.6C29,9,28.5,7.5,28,6c-0.1-0.2-0.1-0.2-0.3-0.2
		c-0.3,0-0.6,0-0.9,0c-0.6,0-1.2,0-1.8,0c0,0.1,0,0.1,0,0.1c0.6,1.4,1.2,2.8,1.8,4.2c0.6,1.4,1.1,2.7,1.7,4.1c0.2,0.4,0.3,0.8,0,1.3
		c-0.2,0.4-0.5,0.8-1,0.9c-0.2,0-0.5,0-0.7,0c-0.1,0.6-0.2,1.1-0.4,1.7c0,0.2,0,0.2,0.1,0.3c0.3,0.1,0.7,0.1,1,0.2
		c0.8,0.2,1.4-0.1,1.9-0.7c0.5-0.5,0.8-1.2,1.1-1.9c0.5-1.3,0.9-2.7,1.4-4c0.5-1.6,1.1-3.2,1.6-4.7c0.2-0.5,0.3-0.9,0.5-1.4
		C33.2,5.8,32.5,5.8,31.7,5.8z"/>
	<path class="st1" d="M14.7,8.8c0-0.6-0.1-1.2-0.3-1.8c-0.3-0.6-0.7-1.1-1.4-1.3c-0.5-0.2-1-0.1-1.5-0.1c-0.6,0-1.1,0.1-1.5,0.5
		c-0.4,0.3-0.7,0.6-1,0.9C8.9,6.6,8.8,6.2,8.7,5.9c-0.7,0-1.3,0-1.9,0c0,3,0,6,0,9c0.8,0,1.6,0,2.4,0c0-0.1,0-0.2,0-0.3
		c0-1.8,0-3.5,0-5.3c0-0.1,0-0.2,0-0.3c0.2-0.6,0.9-1.3,1.8-1.2c0.5,0,0.9,0.3,1,0.7c0.1,0.4,0.2,0.8,0.2,1.2c0,1.6,0,3.3,0,4.9
		c0,0.1,0,0.2,0,0.3c0.8,0,1.6,0,2.4,0c0-0.1,0-0.2,0-0.3C14.7,12.6,14.7,10.7,14.7,8.8z"/>
	<path class="st1" d="M2.2,14.9c0.8,0,1.6,0,2.3,0c0-3,0-6,0-9c-0.8,0-1.6,0-2.3,0C2.2,8.9,2.2,11.9,2.2,14.9z"/>
	<path class="st1" d="M24.2,2.5c0-0.1,0-0.2,0-0.3c-0.8,0-1.6,0-2.4,0c0,1.2,0,2.4,0,3.6c-0.9-0.3-1.7-0.3-2.6-0.1
		c-1.2,0.2-2.1,0.9-2.6,2c-0.4,0.8-0.5,1.7-0.5,2.6c0,0.6,0.1,1.3,0.2,1.9c0.1,0.9,0.5,1.7,1.2,2.2c0.9,0.7,1.9,0.9,3,0.7
		c0.8-0.1,1.5-0.6,2-1.3c0.1,0.3,0.2,0.6,0.2,0.9c0,0.1,0.1,0.2,0.2,0.2c0.5,0,1.1,0,1.6,0c0-1.1-0.1-2.2-0.1-3.2
		C24.2,8.6,24.2,5.5,24.2,2.5z M20.3,13.1c-0.9,0-1.4-0.5-1.6-1.4c-0.2-1-0.2-1.9,0.1-2.9c0.2-0.6,0.8-1.1,1.5-1.1
		c0.5,0,1,0,1.4,0.3c0.1,0.1,0.1,0.2,0.1,0.2c0,0.1,0,0.3,0,0.4c0,0.4,0,0.9,0,1.3c0,0.4,0,0.8,0,1.2c0,0.1,0,0.3,0,0.4
		C21.9,12.2,21.3,13.1,20.3,13.1z"/>
</g>
</svg>
