<?xml version="1.0" encoding="utf-8"?>
<!-- Generator: Adobe Illustrator 25.3.1, SVG Export Plug-In . SVG Version: 6.00 Build 0)  -->
<svg version="1.1" id="Layer_1" xmlns="http://www.w3.org/2000/svg" xmlns:xlink="http://www.w3.org/1999/xlink" x="0px" y="0px"
	 viewBox="0 0 86 46.5" style="enable-background:new 0 0 86 46.5;" xml:space="preserve">
<style type="text/css">
	.st0{fill:#F2AB30;}
	.st1{fill:#FFFFFF;}
</style>
<g>
	<path class="st0" d="M7,12.1c-0.4-0.5-0.8-0.9-1.2-1.4C4.5,9.4,3.3,8.1,2,6.9C1.6,6.5,1.6,6.3,1.9,6c1.6-1.6,3.2-3.2,4.8-4.7
		c0.3-0.3,0.5-0.4,0.9,0c1.6,1.6,3.2,3.2,4.8,4.8c0.2,0.2,0.4,0.4,0.1,0.7C10.7,8.5,8.9,10.2,7,12.1z"/>
	<g>
		<path class="st1" d="M77.2,14.3c-0.3,0-0.4,0.1-0.5,0.5c-0.7,2.7-1.5,5.3-2.2,7.9c-0.5,1.8-0.9,3.7-1.3,5.5
			c-0.1,0.6-0.2,1.2-0.4,1.8c-0.1-0.1-0.2-0.2-0.2-0.3c-0.3-1.3-0.6-2.7-1-4c-1.2-3.6-2.4-7.3-3.6-10.9c-0.1-0.4-0.3-0.5-0.7-0.5
			c-0.7,0-1.5,0-2.2,0c-1.4,0-2.9,0-4.4,0c0,0.1,0,0.2,0.1,0.3c1.4,3.5,2.9,7,4.4,10.4c1.4,3.3,2.8,6.7,4.2,10
			c0.5,1.1,0.6,2.1,0.1,3.1c-0.5,1.1-1.2,2-2.5,2.2c-0.5,0.1-1.1,0-1.8-0.1c-0.3,1.4-0.6,2.8-0.9,4.2c-0.1,0.5,0,0.6,0.4,0.6
			c0.8,0.2,1.6,0.3,2.4,0.5c1.9,0.4,3.4-0.3,4.6-1.6c1.2-1.3,2-2.9,2.6-4.6c1.2-3.3,2.3-6.6,3.5-10c1.3-3.9,2.6-7.8,4-11.7
			c0.4-1.1,0.7-2.3,1.1-3.4C81,14.3,79.1,14.3,77.2,14.3z"/>
		<path class="st1" d="M35.1,21.7c0-1.5-0.2-3-0.7-4.4c-0.6-1.6-1.7-2.7-3.4-3.3c-1.2-0.4-2.5-0.3-3.7-0.3c-1.4,0-2.6,0.4-3.7,1.2
			c-0.9,0.7-1.7,1.4-2.6,2.2c-0.2-0.9-0.4-1.8-0.6-2.7c-1.6,0-3.2,0-4.7,0c0,7.5,0,14.9,0,22.3c2,0,3.9,0,5.8,0c0-0.3,0-0.6,0-0.8
			c0-4.4,0-8.7,0-13.1c0-0.2,0-0.5,0.1-0.7c0.5-1.5,2.1-3.3,4.6-3.1c1.2,0.1,2.2,0.7,2.5,1.8c0.3,1,0.5,2,0.5,3c0.1,4,0,8.1,0,12.1
			c0,0.2,0,0.5,0,0.8c2,0,3.9,0,5.9,0c0-0.3,0-0.5,0-0.8C35.1,31.2,35.1,26.4,35.1,21.7z"/>
		<path class="st1" d="M4.2,36.6c2,0,3.9,0,5.8,0c0-7.5,0-14.9,0-22.3c-2,0-3.9,0-5.8,0C4.2,21.8,4.2,29.2,4.2,36.6z"/>
		<path class="st1" d="M58.8,6.1c0-0.2,0-0.5,0-0.7c-2,0-3.9,0-5.9,0c0,3,0,6,0,8.9c-2.2-0.7-4.3-0.8-6.4-0.4c-3,0.5-5.1,2.3-6.4,5
			c-1,2-1.3,4.1-1.3,6.3c0,1.6,0.1,3.1,0.4,4.7c0.3,2.2,1.1,4.1,2.9,5.5c2.2,1.7,4.7,2.1,7.3,1.7c2.1-0.3,3.7-1.4,4.9-3.3
			c0.2,0.8,0.4,1.5,0.6,2.3c0.1,0.2,0.3,0.6,0.5,0.6c1.3,0,2.7,0,3.9,0c-0.1-2.7-0.3-5.4-0.3-8C58.8,21.1,58.8,13.6,58.8,6.1z
			 M49.1,32.2c-2.2,0-3.5-1.3-4-3.5c-0.5-2.4-0.4-4.8,0.3-7.1c0.5-1.6,2.1-2.7,3.7-2.8c1.2,0,2.4,0,3.4,0.7c0.2,0.1,0.3,0.4,0.3,0.6
			c0,0.4,0,0.7,0,1.1c0,1.1,0,2.1,0,3.2c0,1,0,1.9,0,2.9c0,0.3,0,0.6,0,1C53,30,51.4,32.2,49.1,32.2z"/>
	</g>
</g>
</svg>
